<svg width="211" height="195" viewBox="0 0 211 195" fill="none" xmlns="http://www.w3.org/2000/svg">
<g clip-path="url(#clip0_910_526)">
<path d="M96.6862 194.021C150.084 194.021 193.372 150.588 193.372 97.0104C193.372 43.433 150.084 0 96.6862 0C43.2879 0 0 43.433 0 97.0104C0 150.588 43.2879 194.021 96.6862 194.021Z" fill="url(#paint0_linear_910_526)"/>
<path d="M135.54 139.177C135.54 139.177 136.002 126.404 132.395 127.121C130.591 127.479 130.216 127.479 130.303 127.392C130.39 127.304 130.913 127.121 130.913 127.121C126.687 128.205 124.012 128.799 124.012 128.799L124.544 140.847L135.54 139.177Z" fill="white" stroke="#102771" stroke-width="2.21" stroke-miterlimit="10"/>
<path d="M56.1331 149.66H54.6256C54.6256 149.66 52.8829 148.007 53.0746 133.468C53.0746 133.468 54.6431 130.714 67.9313 131.912V149.275L56.1244 149.66H56.1331Z" fill="white" stroke="#102771" stroke-width="2.21" stroke-miterlimit="10"/>
<path d="M135.714 101.321C139.043 126.657 121.476 145.393 93.1833 147.282C66.3367 149.074 49.3713 128.467 50.6522 101.321C51.6543 80.0231 66.9031 64.7931 93.1833 65.1778C119.237 65.5537 132.917 80.0144 135.714 101.321Z" fill="white" stroke="#102771" stroke-width="2.21" stroke-miterlimit="10"/>
<path d="M131.793 104.757C134.799 124.498 118.932 139.098 93.3663 140.567C69.1163 141.957 53.7891 125.905 54.9393 104.757C55.8455 88.1627 69.6217 76.2899 93.3663 76.5872C116.91 76.8844 129.266 88.1452 131.793 104.757Z" fill="#102771" stroke="#0D2051" stroke-width="2.21" stroke-miterlimit="10"/>
<path d="M53.9633 124.061C53.9633 124.061 47.829 127.068 44.6834 124.061C41.0324 115.161 37.9564 111.401 44.6834 97.229C44.6834 97.229 46.9576 96.7306 49.9899 97.229C49.4497 102.204 50.809 120.931 52.5866 122.321L53.9721 124.061H53.9633Z" fill="white" stroke="#102771" stroke-width="2.21" stroke-miterlimit="10"/>
<path d="M133.754 121.875C133.754 121.875 140.071 124.489 143.016 121.28C146.092 112.162 148.924 108.21 141.317 94.5012C141.317 94.5012 139.017 94.1428 136.028 94.8422C136.882 99.7731 136.717 118.544 135.035 120.048L133.763 121.875H133.754Z" fill="white" stroke="#102771" stroke-width="2.21" stroke-miterlimit="10"/>
<path d="M67.0338 82.882C64.8554 78.4494 60.8907 76.5872 60.8907 76.5872L67.0338 82.882Z" fill="white"/>
<path d="M67.0338 82.882C64.8554 78.4494 60.8907 76.5872 60.8907 76.5872" stroke="#102771" stroke-width="2.21" stroke-miterlimit="10"/>
<path d="M116.222 82.1476C117.791 77.5314 122.287 74.62 122.287 74.62L116.222 82.1476Z" fill="white"/>
<path d="M116.222 82.1476C117.791 77.5314 122.287 74.62 122.287 74.62" stroke="#102771" stroke-width="2.21" stroke-miterlimit="10"/>
<path d="M89.3232 64.1986C90.6041 56.6885 83.6594 46.6167 83.6594 46.6167C78.3528 40.9164 73.752 42.7174 71.9657 44.2912C70.1707 45.8649 68.2711 48.2254 68.2711 48.2254C72.9765 51.0406 79.2503 50.927 80.7141 50.0265C82.178 49.1259 83.2934 47.7795 83.2934 47.7795" stroke="#009D47" stroke-width="1.47" stroke-miterlimit="10"/>
<path d="M94.229 36.4751C90.7087 35.8543 86.3954 37.498 84.7224 39.6837C83.0494 41.8694 82.8751 42.7437 82.8751 42.7437C82.8751 42.7437 83.8423 45.2179 85.3411 45.1305C86.8398 45.043 91.8501 42.3502 93.436 40.7416C95.0219 39.1329 96.8692 37.3668 96.8692 37.3668L94.229 36.4838V36.4751Z" stroke="#009D47" stroke-width="1.47" stroke-miterlimit="10"/>
<path d="M157.124 74.9435L164.121 122.47L167.38 121.84L157.124 65.4925H155.303L157.124 74.9435Z" fill="#102771" stroke="black" stroke-width="1.47" stroke-miterlimit="10"/>
<path d="M155.895 65.169C156.915 65.169 157.742 64.3392 157.742 63.3155C157.742 62.2919 156.915 61.4621 155.895 61.4621C154.875 61.4621 154.048 62.2919 154.048 63.3155C154.048 64.3392 154.875 65.169 155.895 65.169Z" fill="#009D47" stroke="black" stroke-width="1.47" stroke-miterlimit="10"/>
<path d="M159.023 75.5817C163.371 69.4006 162.892 69.7328 170.36 68.1154C176.564 66.769 180.677 73.7457 191.325 73.3173C201.973 72.889 205.136 70.8082 205.136 70.8082L209.798 103.034C192.161 95.017 173.253 97.4913 166.9 106.269C165.846 107.72 165.515 109.049 165.515 109.049L159.023 75.573V75.5817Z" fill="#163072" stroke="black" stroke-width="2.21" stroke-miterlimit="10"/>
<path d="M139.967 51.8974L140.124 53.34L141.457 52.763L140.289 53.6198L141.457 54.4853L140.124 53.8995L139.967 55.3421L139.81 53.8995L138.477 54.4853L139.644 53.6198L138.477 52.763L139.81 53.34L139.967 51.8974Z" fill="white"/>
<path d="M154.048 31.2206L154.205 32.6632L155.529 32.0862L154.362 32.943L155.529 33.8085L154.205 33.2227L154.048 34.6653L153.882 33.2227L152.558 33.8085L153.725 32.943L152.558 32.0862L153.882 32.6632L154.048 31.2206Z" fill="white"/>
<path d="M75.2768 30.0841L75.4424 31.5266L76.7669 30.9409L75.5992 31.8064L76.7669 32.6632L75.4424 32.0862L75.2768 33.5287L75.12 32.0862L73.7955 32.6632L74.9632 31.8064L73.7955 30.9409L75.12 31.5266L75.2768 30.0841Z" fill="white"/>
<path d="M50.5825 20.0386L50.7045 21.1227L51.6978 20.6855L50.8178 21.3325L51.6978 21.9795L50.7045 21.5423L50.5825 22.6265L50.4605 21.5423L49.4672 21.9795L50.3385 21.3325L49.4672 20.6855L50.4605 21.1227L50.5825 20.0386Z" fill="white"/>
<path d="M47.6112 43.3906L47.2801 42.8486L46.6701 42.9972L47.2103 42.665L47.0622 42.053L47.3933 42.595L48.0033 42.4464L47.463 42.7786L47.6112 43.3906Z" fill="white"/>
<path d="M123.925 35.3298L123.603 34.7965L122.993 34.9451L123.524 34.6129L123.385 34.0009L123.707 34.5429L124.317 34.3943L123.777 34.7178L123.925 35.3298Z" fill="white"/>
<path d="M33.5735 96.2498L33.2424 95.7165L32.6324 95.8651L33.1727 95.5329L33.0246 94.9209L33.347 95.4629L33.9569 95.3143L33.4254 95.6378L33.5735 96.2498Z" fill="white"/>
<path d="M89.7502 19.7588L89.419 19.2167L88.8091 19.3654L89.3493 19.0419L89.2012 18.4299L89.5323 18.9632L90.1423 18.8146L89.602 19.1468L89.7502 19.7588Z" fill="white"/>
<path d="M134.695 160.046C145.09 162.721 156.453 160.072 160.078 158.298C163.703 156.523 169.941 149.633 169.941 149.633L161.655 132.218L152.375 136.773C152.375 136.773 131.715 145.892 123.969 135.811C108.066 150.202 88.1643 147.518 88.1643 147.518C76.0698 147.282 67.879 140.794 67.879 140.794C51.5758 148.943 45.5983 168.946 45.5983 168.946C44.1954 172.286 43.1149 177.707 43.1149 177.707C58.4944 187.402 70.4495 190.462 70.4495 190.462C86.6917 194.948 103.492 193.951 103.492 193.951C127.776 192.386 139.74 183.11 139.74 183.11C139.74 183.11 138.755 164.566 131.846 154.87" fill="white"/>
<path d="M134.695 160.046C145.09 162.721 156.453 160.072 160.078 158.298C163.703 156.523 169.941 149.633 169.941 149.633L161.655 132.218L152.375 136.773C152.375 136.773 131.715 145.892 123.969 135.811C108.066 150.202 88.1643 147.518 88.1643 147.518C76.0698 147.282 67.879 140.794 67.879 140.794C51.5758 148.943 45.5983 168.946 45.5983 168.946C44.1954 172.286 43.1149 177.707 43.1149 177.707C58.4944 187.402 70.4495 190.462 70.4495 190.462C86.6917 194.948 103.492 193.951 103.492 193.951C127.776 192.386 139.74 183.11 139.74 183.11C139.74 183.11 138.755 164.566 131.846 154.87" stroke="#102771" stroke-width="2.21" stroke-miterlimit="10"/>
<path opacity="0.5" d="M46.8618 168.107C90.1684 193.802 137.623 176.561 137.814 175.923L138.764 182.778C121.459 193.881 93.2617 194.108 93.5144 192.858C67.635 191.879 51.3144 181.178 51.3144 181.178L44.1344 177.357L46.8618 168.107Z" fill="#B9BDD4"/>
<path d="M179.213 135.811C179.213 142.954 174.621 150.683 168.957 150.683C163.293 150.683 157.742 142.954 157.742 135.811C157.742 128.668 163.302 122.88 168.957 122.88C174.612 122.88 179.213 128.668 179.213 135.811Z" fill="white" stroke="#102771" stroke-width="2.21" stroke-miterlimit="10"/>
<path d="M42.6705 165.467C49.7895 165.467 57.4924 170.074 57.4924 175.757C57.4924 181.44 49.7895 187.009 42.6705 187.009C35.5515 187.009 29.7831 181.431 29.7831 175.757C29.7831 170.083 35.5515 165.467 42.6705 165.467Z" fill="white" stroke="#102771" stroke-width="2.21" stroke-miterlimit="10"/>
<path d="M71.5561 157.144C67.5217 165.449 69.4213 178.266 69.4213 178.266H119.96C122.81 167.923 118.54 156.645 118.54 156.645L71.5648 157.135L71.5561 157.144Z" stroke="#0D2051" stroke-width="2.21" stroke-miterlimit="10"/>
<path d="M74.5797 163.141C71.0681 168.71 72.7237 177.305 72.7237 177.305H116.736C119.219 170.371 115.499 162.809 115.499 162.809L74.5797 163.141Z" fill="#102771" stroke="#0D2051" stroke-width="2.21" stroke-miterlimit="10"/>
<path opacity="0.5" d="M122.81 98.6628C116.693 88.1889 106.071 84.4382 96.2853 86.3704C86.5087 88.3025 100.999 93.6706 102.873 94.1777C104.746 94.6848 113.007 101.364 114.575 102.859C116.144 104.354 121.293 108.105 123.428 109.119C125.563 110.133 128.177 108.28 126.617 104.8L122.81 98.6628Z" fill="#6E7CA7"/>
<path opacity="0.5" d="M90.456 89.1419C90.456 90.7855 87.8593 92.1144 86.2212 92.1144C84.583 92.1144 82.4133 91.7385 82.4133 90.0948C82.4133 88.4512 84.5917 86.1606 86.2212 86.1606C87.8506 86.1606 90.456 87.4895 90.456 89.1331V89.1419Z" fill="#6E7CA7"/>
<path d="M91.8937 94.1602C92.4615 94.1602 92.9219 93.6983 92.9219 93.1286C92.9219 92.5588 92.4615 92.0969 91.8937 92.0969C91.3258 92.0969 90.8655 92.5588 90.8655 93.1286C90.8655 93.6983 91.3258 94.1602 91.8937 94.1602Z" fill="#1A7FD3"/>
<path d="M98.1414 172.181C98.1066 172.085 98.0717 171.998 98.0456 171.901C98.0456 171.901 98.0456 171.901 98.0456 171.893C98.0194 171.832 98.002 171.77 97.9759 171.709C97.9671 171.683 97.9584 171.657 97.9497 171.639C97.9497 171.622 97.9323 171.595 97.9236 171.578V171.56C97.9149 171.534 97.9061 171.508 97.8974 171.482C97.8974 171.482 97.8713 171.403 97.8539 171.359C97.8539 171.359 97.8539 171.351 97.8539 171.342C97.8364 171.289 97.8103 171.228 97.7929 171.176C97.7929 171.176 97.7929 171.167 97.7929 171.158C97.7493 171.053 97.7057 170.94 97.6622 170.835C97.6622 170.835 97.6622 170.826 97.6622 170.817V170.782C97.6622 170.782 97.6447 170.774 97.6447 170.765C97.6447 170.747 97.636 170.739 97.6273 170.721C97.6273 170.704 97.6186 170.695 97.6099 170.677C97.6099 170.677 97.6012 170.642 97.5925 170.634C97.5576 170.546 97.5227 170.459 97.4879 170.371C97.4879 170.371 97.4879 170.363 97.4879 170.354C97.4879 170.345 97.4879 170.336 97.4792 170.319C97.4792 170.319 97.4792 170.31 97.4792 170.302C97.4618 170.267 97.453 170.232 97.4356 170.197C97.4356 170.197 97.4356 170.188 97.4356 170.179C97.4269 170.144 97.4095 170.118 97.4008 170.083C97.4182 170.083 97.4443 170.074 97.4618 170.074C97.5053 170.074 97.5576 170.074 97.6012 170.074C97.6709 170.074 97.7319 170.074 97.8016 170.074C97.8364 170.074 97.8713 170.074 97.9061 170.074C97.9236 170.074 97.941 170.074 97.9584 170.074C98.002 170.074 98.0456 170.074 98.0804 170.074C98.1153 170.074 98.1588 170.074 98.1937 170.074C98.2111 170.074 98.2198 170.074 98.2373 170.074C98.246 170.074 98.2547 170.074 98.2721 170.074C98.307 170.074 98.3505 170.074 98.3854 170.074C98.4203 170.074 98.4551 170.074 98.49 170.074C98.5161 170.074 98.5422 170.074 98.5771 170.074C98.6032 170.074 98.6294 170.074 98.6468 170.074C98.6642 170.074 98.6817 170.074 98.6991 170.074C98.7252 170.074 98.7514 170.074 98.7688 170.074C98.8036 170.074 98.8298 170.074 98.8646 170.074C98.8995 170.074 98.9256 170.074 98.9605 170.074C98.9779 170.074 99.0041 170.074 99.0215 170.074H99.0825C99.0825 170.074 99.1261 170.074 99.1435 170.074C99.1435 170.074 99.1435 170.074 99.1522 170.074C99.1522 170.074 99.1522 170.074 99.1609 170.074C99.1958 170.074 99.2306 170.074 99.2655 170.083C99.2916 170.083 99.3178 170.083 99.3439 170.092C99.3787 170.092 99.4136 170.092 99.4485 170.092H99.4659C99.492 170.092 99.5182 170.092 99.5356 170.1C99.553 170.1 99.5792 170.1 99.5966 170.109H99.614C99.6314 170.109 99.6489 170.109 99.6663 170.118H99.6837C99.7012 170.118 99.7186 170.118 99.736 170.127H99.7534H99.797L99.8144 170.135C99.8319 170.135 99.8406 170.135 99.858 170.144C99.9016 170.144 99.9451 170.162 99.98 170.17C99.9887 170.17 99.9974 170.17 100.006 170.17C100.041 170.17 100.076 170.188 100.111 170.197H100.128C100.128 170.197 100.128 170.197 100.137 170.197C100.137 170.197 100.146 170.197 100.154 170.197C100.189 170.214 100.215 170.223 100.25 170.24C100.285 170.258 100.32 170.267 100.355 170.284C100.355 170.284 100.355 170.284 100.363 170.284C100.363 170.284 100.424 170.345 100.451 170.371C100.451 170.371 100.451 170.371 100.451 170.38C100.451 170.38 100.459 170.398 100.468 170.406C100.468 170.406 100.468 170.406 100.468 170.415C100.503 170.485 100.546 170.564 100.581 170.634C100.599 170.669 100.607 170.704 100.625 170.739C100.625 170.739 100.625 170.756 100.625 170.765C100.625 170.765 100.625 170.8 100.634 170.817C100.634 170.817 100.634 170.817 100.634 170.826C100.651 170.87 100.668 170.914 100.686 170.966C100.695 171.001 100.703 171.027 100.712 171.062C100.729 171.141 100.755 171.228 100.773 171.307C100.799 171.429 100.825 171.56 100.843 171.683C100.86 171.762 100.869 171.84 100.886 171.928C100.886 171.98 100.904 172.024 100.912 172.076C100.912 172.076 100.912 172.076 100.912 172.085C100.912 172.138 100.93 172.181 100.93 172.234C100.93 172.277 100.938 172.321 100.938 172.356C100.938 172.409 100.938 172.461 100.947 172.505V172.522C100.947 172.618 100.965 172.723 100.965 172.819C100.965 172.819 100.965 172.837 100.973 172.846C100.973 172.846 100.973 172.907 100.965 172.942C100.965 173.012 100.965 173.09 100.965 173.16C100.947 173.178 100.938 173.195 100.921 173.204C100.834 173.257 100.755 173.318 100.668 173.37C100.398 173.519 100.128 173.668 99.858 173.807C99.4746 174.008 99.0825 174.21 98.6904 174.402C98.5074 174.489 98.3157 174.577 98.1327 174.655C98.0978 174.673 98.0717 174.682 98.0281 174.682C98.0717 174.629 98.1153 174.568 98.1414 174.507C98.1937 174.376 98.246 174.236 98.2721 174.096C98.2895 174.026 98.2983 173.956 98.3157 173.886C98.3244 173.825 98.3331 173.764 98.3418 173.702C98.3505 173.589 98.368 173.484 98.3767 173.37C98.3767 173.248 98.3767 173.117 98.3767 172.994C98.3767 172.924 98.3505 172.846 98.3331 172.776C98.3331 172.776 98.3331 172.776 98.3331 172.767C98.3331 172.758 98.3331 172.75 98.3331 172.741C98.3331 172.741 98.3331 172.741 98.3331 172.732V172.715C98.3331 172.715 98.3331 172.706 98.3331 172.697C98.3331 172.688 98.3331 172.68 98.3331 172.671C98.3331 172.671 98.3331 172.671 98.3331 172.662C98.3331 172.645 98.3244 172.618 98.3157 172.601C98.3157 172.601 98.3157 172.583 98.3157 172.575C98.3157 172.575 98.3157 172.575 98.3157 172.566V172.548C98.3157 172.548 98.3157 172.548 98.3157 172.54C98.2721 172.4 98.2198 172.26 98.1763 172.111C98.1763 172.111 98.1763 172.111 98.1763 172.103L98.1414 172.181Z" fill="#009D47"/>
<path d="M92.4165 170.494C92.4165 170.494 92.3991 170.494 92.3904 170.494C92.3817 170.494 92.373 170.494 92.3555 170.494C92.312 170.494 92.2771 170.494 92.2336 170.485C92.1987 170.468 92.1726 170.468 92.1377 170.485C92.1203 170.485 92.1116 170.503 92.0941 170.503C92.0941 170.503 92.0854 170.503 92.0767 170.511C92.0767 170.511 92.0767 170.511 92.068 170.511C92.0506 170.529 92.0331 170.546 92.0157 170.564C92.0157 170.564 92.0157 170.564 92.0157 170.573C91.9634 170.634 91.9286 170.704 91.9024 170.774C91.9024 170.774 91.9024 170.782 91.8937 170.791C91.8937 170.791 91.8937 170.791 91.8937 170.8C91.8763 170.844 91.8589 170.887 91.8502 170.931C91.8502 170.948 91.8502 170.957 91.8502 170.975C91.8502 170.975 91.8502 170.975 91.8502 170.983C91.8502 171.001 91.8414 171.027 91.8327 171.045C91.8327 171.045 91.8327 171.045 91.8327 171.053C91.8327 171.053 91.8327 171.053 91.8327 171.062C91.8327 171.062 91.8327 171.062 91.8327 171.071C91.824 171.115 91.8153 171.158 91.7979 171.202C91.7804 171.289 91.763 171.368 91.7456 171.456C91.7369 171.499 91.7282 171.552 91.7195 171.595C91.7195 171.613 91.7195 171.63 91.7195 171.648C91.7195 171.648 91.7195 171.648 91.7195 171.657C91.7107 171.727 91.702 171.797 91.6933 171.866C91.6933 171.91 91.6846 171.963 91.6759 172.006C91.6585 172.024 91.641 172.024 91.6149 172.024C91.5888 172.006 91.5626 172.015 91.5452 172.024C91.5452 172.024 91.5452 172.024 91.5365 172.024C91.5103 172.024 91.4842 172.024 91.4668 172.024C91.4319 172.024 91.3883 172.024 91.3535 172.024C91.2228 172.024 91.1008 172.024 90.9701 172.024C90.9439 172.024 90.9178 172.024 90.9004 172.024C90.8742 172.024 90.8481 172.024 90.8307 172.024C90.822 172.024 90.8132 172.024 90.8045 172.024C90.7784 172.024 90.7522 172.024 90.7348 172.024C90.7174 172.024 90.7087 172.024 90.6913 172.024C90.6825 172.024 90.6738 172.024 90.6564 172.024C90.639 172.024 90.6303 172.024 90.6128 172.024C90.6041 172.024 90.5954 172.024 90.5867 172.024H90.5693C90.5605 172.024 90.5518 172.024 90.5344 172.024H90.517C90.517 172.024 90.517 172.024 90.5083 172.024C90.4908 172.024 90.4821 172.024 90.4647 172.015C90.4473 172.015 90.4386 172.015 90.4211 172.006C90.4124 172.006 90.4037 172.006 90.395 172.006C90.3601 171.998 90.334 171.98 90.2991 171.971C90.2991 171.971 90.2904 171.971 90.2817 171.971C90.2469 171.954 90.2207 171.945 90.1859 171.928C90.1859 171.928 90.1859 171.928 90.1771 171.928C90.1771 171.928 90.1684 171.928 90.1597 171.919C90.1249 171.893 90.09 171.866 90.0552 171.849C90.0552 171.849 90.0552 171.849 90.0464 171.849C90.0203 171.832 90.0029 171.805 89.9767 171.788C89.9767 171.788 89.9767 171.788 89.9767 171.779C89.8809 171.665 89.8112 171.534 89.7415 171.403C89.7153 171.359 89.7066 171.307 89.6892 171.254C89.6892 171.254 89.6892 171.254 89.6892 171.246C89.6892 171.228 89.6805 171.211 89.6718 171.193C89.6718 171.193 89.6718 171.193 89.6718 171.185V171.167C89.6718 171.167 89.6718 171.167 89.6718 171.158C89.6718 171.15 89.6718 171.141 89.663 171.123C89.663 171.088 89.6456 171.062 89.6369 171.027C89.6369 171.027 89.6369 171.027 89.6369 171.018C89.6369 170.992 89.6282 170.975 89.6195 170.948C89.6195 170.931 89.6108 170.922 89.6021 170.905C89.6021 170.887 89.6021 170.87 89.6021 170.852C89.6195 170.835 89.6282 170.817 89.6195 170.791C89.6195 170.739 89.6456 170.686 89.663 170.634C89.6892 170.555 89.724 170.485 89.7676 170.415C89.785 170.38 89.8112 170.336 89.8373 170.302C89.8373 170.302 89.8373 170.302 89.8373 170.293C89.8809 170.223 89.9245 170.153 89.968 170.092C89.968 170.092 89.968 170.092 89.968 170.083C90.0464 169.978 90.1249 169.873 90.2033 169.777C90.2033 169.777 90.2033 169.777 90.2033 169.768C90.2381 169.733 90.273 169.69 90.3079 169.646C90.2817 169.628 90.2643 169.62 90.2381 169.611C90.2381 169.611 90.2381 169.611 90.2294 169.611C90.2294 169.611 90.2207 169.611 90.212 169.602C90.1771 169.585 90.1423 169.558 90.1074 169.541C90.1074 169.541 90.1074 169.541 90.0987 169.541C90.0987 169.541 90.09 169.541 90.0813 169.532C90.0464 169.515 90.0116 169.488 89.9767 169.471C89.9767 169.471 89.9767 169.471 89.968 169.471C89.968 169.471 89.9593 169.471 89.9506 169.462C89.9157 169.445 89.8809 169.418 89.846 169.401C89.846 169.401 89.846 169.401 89.8373 169.401C89.8373 169.401 89.8286 169.401 89.8199 169.392C89.7938 169.375 89.7676 169.366 89.7502 169.349C89.7502 169.349 89.7502 169.331 89.7589 169.331C89.8199 169.331 89.8809 169.314 89.9419 169.305C90.0203 169.296 90.0987 169.279 90.1771 169.27C90.2556 169.261 90.334 169.244 90.4037 169.235C90.4996 169.217 90.6041 169.209 90.7 169.191C90.7348 169.191 90.7697 169.191 90.8045 169.165C90.822 169.156 90.8481 169.165 90.8655 169.165C90.9614 169.147 91.0659 169.139 91.1618 169.121C91.2751 169.104 91.397 169.078 91.5103 169.06C91.6062 169.043 91.7107 169.034 91.8066 169.016C91.9112 168.999 92.0244 168.981 92.129 168.964C92.129 168.964 92.1639 169.025 92.1813 169.06C92.1987 169.104 92.2161 169.147 92.2336 169.191C92.2336 169.191 92.2336 169.191 92.2336 169.2C92.2336 169.2 92.2336 169.209 92.2423 169.217C92.2597 169.261 92.2858 169.305 92.3033 169.349C92.3207 169.392 92.3381 169.436 92.3555 169.48C92.3555 169.48 92.3555 169.48 92.3555 169.488C92.3555 169.488 92.3555 169.488 92.3643 169.497C92.3817 169.541 92.4078 169.585 92.4253 169.628C92.4427 169.672 92.4601 169.716 92.4775 169.759C92.4775 169.759 92.4775 169.759 92.4775 169.768C92.4775 169.768 92.4775 169.768 92.4863 169.777C92.5037 169.821 92.5298 169.864 92.5472 169.908C92.5647 169.952 92.5821 169.996 92.5995 170.039C92.5995 170.039 92.5995 170.039 92.5995 170.048C92.5995 170.048 92.5995 170.048 92.6082 170.057C92.6431 170.144 92.6867 170.223 92.7215 170.302C92.7215 170.302 92.7215 170.31 92.7215 170.319C92.7215 170.319 92.7215 170.319 92.7215 170.328C92.7215 170.328 92.7215 170.328 92.7302 170.336C92.7651 170.424 92.8087 170.511 92.8435 170.599C92.8435 170.599 92.8435 170.599 92.8435 170.608C92.8435 170.608 92.8435 170.608 92.8522 170.616C92.8784 170.669 92.8958 170.73 92.9219 170.782H92.9045C92.8435 170.756 92.7912 170.73 92.7302 170.695H92.7128C92.6867 170.695 92.6692 170.677 92.6431 170.669C92.6431 170.669 92.6257 170.669 92.617 170.669H92.5995H92.5821H92.5647H92.5472C92.5385 170.669 92.5298 170.669 92.5211 170.669C92.5211 170.669 92.5037 170.669 92.5037 170.66L92.4165 170.494Z" fill="#019D47"/>
<path d="M92.617 174.909H92.5995C92.5821 174.909 92.5734 174.909 92.556 174.909H92.5386C92.5211 174.909 92.5124 174.909 92.495 174.909C92.4863 174.909 92.4776 174.909 92.4689 174.909C92.4514 174.909 92.4427 174.909 92.4253 174.909H92.4079C92.3904 174.909 92.3817 174.909 92.3643 174.909C92.3556 174.909 92.3469 174.909 92.3381 174.909C92.3207 174.909 92.312 174.909 92.2946 174.909C92.2859 174.909 92.2771 174.909 92.2684 174.909C92.251 174.909 92.2336 174.909 92.2162 174.909C92.2074 174.909 92.1987 174.909 92.1813 174.909C92.1639 174.909 92.1552 174.909 92.1377 174.909C92.1203 174.909 92.1116 174.909 92.0942 174.909C92.0855 174.909 92.0767 174.909 92.0593 174.909C92.0332 174.909 92.007 174.909 91.9896 174.918C91.9896 174.918 91.9896 174.918 91.9809 174.926C91.9547 174.926 91.9373 174.926 91.9112 174.926C91.8938 174.926 91.885 174.926 91.8676 174.926C91.8328 174.926 91.8066 174.926 91.7718 174.935H91.7543C91.7195 174.935 91.6759 174.935 91.6411 174.935C91.6149 174.935 91.5975 174.935 91.5713 174.935C91.5452 174.935 91.5191 174.935 91.4929 174.935C91.4581 174.935 91.4319 174.935 91.3971 174.935C91.3796 174.935 91.3535 174.935 91.3361 174.935C91.3099 174.935 91.2838 174.935 91.2489 174.935C91.2402 174.935 91.2315 174.926 91.2228 174.918C91.2228 174.918 91.2228 174.918 91.2228 174.909C91.2228 174.909 91.2141 174.892 91.2054 174.883C91.2054 174.883 91.2054 174.883 91.2054 174.874C91.1705 174.822 91.1444 174.778 91.1095 174.725C91.1095 174.725 91.1095 174.717 91.1008 174.708C91.1008 174.708 91.1008 174.699 91.1008 174.69C91.1008 174.69 91.1008 174.682 91.0921 174.673C91.0921 174.673 91.0921 174.664 91.0834 174.655C91.0834 174.655 91.0834 174.647 91.0834 174.638C91.0834 174.62 91.066 174.612 91.0572 174.594C91.0572 174.594 91.0572 174.586 91.0485 174.577C91.0485 174.577 91.0485 174.568 91.0485 174.559C91.0485 174.542 91.0311 174.533 91.0224 174.516C91.0224 174.516 91.0224 174.507 91.0137 174.498C91.0137 174.498 91.0137 174.498 91.0137 174.489C91.0137 174.472 90.9962 174.463 90.9875 174.446C90.9875 174.446 90.9875 174.437 90.9788 174.428C90.9788 174.428 90.9788 174.419 90.9788 174.411C90.944 174.349 90.9178 174.297 90.883 174.236C90.883 174.236 90.883 174.227 90.8743 174.218C90.8743 174.218 90.8743 174.21 90.8743 174.201C90.8568 174.166 90.8394 174.131 90.822 174.096C90.822 174.096 90.822 174.087 90.8133 174.078C90.8133 174.078 90.8133 174.07 90.8133 174.061C90.7958 174.026 90.7784 173.991 90.761 173.956C90.761 173.956 90.761 173.947 90.7523 173.939C90.7523 173.939 90.7523 173.93 90.7523 173.921C90.7174 173.86 90.6913 173.799 90.6564 173.737C90.6564 173.737 90.6564 173.729 90.6477 173.72C90.6477 173.72 90.6477 173.711 90.6477 173.702C90.6477 173.694 90.639 173.676 90.6303 173.668C90.6303 173.668 90.6303 173.668 90.6303 173.659C90.5867 173.571 90.5344 173.484 90.4909 173.388C90.4647 173.344 90.4473 173.292 90.4211 173.239C90.4211 173.239 90.4211 173.239 90.4211 173.23C90.3602 173.108 90.2992 172.994 90.2382 172.872C90.2207 172.828 90.2033 172.784 90.1772 172.741C90.1772 172.741 90.1772 172.741 90.1772 172.732C90.151 172.671 90.1162 172.61 90.09 172.548C90.0552 172.478 90.0203 172.4 89.9855 172.33C89.9855 172.33 89.9855 172.321 89.9855 172.312C89.9593 172.26 89.9332 172.199 89.907 172.146C89.907 172.146 89.907 172.138 89.907 172.129C89.8983 172.103 89.8896 172.076 89.8809 172.05C89.8809 172.033 89.8809 172.015 89.8722 171.989C89.9245 172.05 89.9942 172.085 90.0639 172.111C90.1075 172.129 90.151 172.146 90.1859 172.164C90.1946 172.164 90.212 172.164 90.2207 172.164C90.2207 172.164 90.2294 172.164 90.2382 172.164C90.2904 172.181 90.3427 172.199 90.3863 172.207C90.4124 172.207 90.4386 172.207 90.456 172.216C90.456 172.216 90.4734 172.216 90.4821 172.216H90.4996C90.5083 172.216 90.517 172.216 90.5257 172.216C90.5431 172.216 90.5519 172.216 90.5693 172.225C90.6041 172.225 90.6477 172.242 90.6826 172.242C90.7 172.242 90.7261 172.242 90.7436 172.251H90.761C90.7784 172.251 90.7958 172.251 90.8133 172.26H90.8307C90.8568 172.26 90.883 172.26 90.9004 172.269H90.9178C90.9614 172.286 90.9963 172.277 91.0398 172.286C91.0747 172.286 91.1182 172.286 91.1531 172.295C91.1879 172.295 91.2315 172.295 91.2664 172.295C91.2838 172.295 91.3099 172.295 91.3274 172.295C91.3622 172.295 91.3971 172.295 91.4319 172.295C91.4581 172.295 91.4842 172.295 91.5191 172.286C91.5452 172.286 91.5713 172.277 91.5975 172.269C91.6062 172.269 91.6149 172.269 91.6236 172.269C91.6236 172.269 91.6411 172.269 91.6498 172.269C91.6498 172.269 91.6585 172.269 91.6672 172.269C91.7369 172.251 91.7979 172.234 91.8676 172.216C91.8676 172.216 91.8763 172.216 91.885 172.216C92.0419 172.164 92.19 172.12 92.3381 172.068C92.6257 171.963 92.9045 171.866 93.1834 171.753C93.3576 171.692 93.5232 171.622 93.6888 171.552C93.8892 171.473 94.0896 171.394 94.29 171.307C94.3771 171.272 94.4643 171.237 94.5514 171.202H94.5688C94.5688 171.324 94.5688 171.447 94.5688 171.56C94.5688 171.753 94.5688 171.945 94.5514 172.138C94.534 172.444 94.5165 172.75 94.4904 173.064C94.4904 173.134 94.473 173.204 94.473 173.274V173.292C94.473 173.309 94.473 173.335 94.473 173.353V173.37C94.4555 173.466 94.4468 173.563 94.4294 173.659C94.412 173.755 94.3946 173.851 94.3771 173.947C94.3771 173.947 94.351 174.026 94.3423 174.061C94.3161 174.157 94.2638 174.236 94.1854 174.297C94.1854 174.297 94.1767 174.306 94.168 174.314C94.168 174.314 94.168 174.314 94.1593 174.323C94.1244 174.349 94.0809 174.376 94.046 174.393C94.046 174.393 94.0373 174.393 94.0286 174.402C94.0286 174.402 94.0286 174.402 94.0199 174.402C93.9937 174.419 93.9589 174.428 93.9327 174.446C93.9327 174.446 93.924 174.446 93.9153 174.454C93.863 174.472 93.8107 174.498 93.7585 174.516C93.7585 174.516 93.7497 174.516 93.741 174.516C93.6888 174.533 93.6365 174.551 93.5842 174.568C93.5755 174.568 93.5668 174.568 93.5581 174.577C93.5319 174.577 93.5058 174.594 93.4883 174.603C93.4796 174.603 93.4709 174.603 93.4535 174.603C93.4535 174.603 93.4535 174.603 93.4448 174.603C93.4361 174.603 93.4273 174.603 93.4186 174.603C93.4012 174.603 93.3925 174.603 93.3751 174.612C93.3664 174.612 93.3576 174.612 93.3402 174.612C93.3402 174.612 93.3402 174.612 93.3315 174.612C93.3228 174.612 93.3141 174.612 93.2966 174.612C93.2966 174.612 93.2966 174.612 93.2879 174.612C93.2792 174.612 93.2705 174.612 93.2531 174.612C93.2531 174.612 93.2531 174.612 93.2444 174.612C93.2356 174.612 93.2182 174.612 93.2095 174.612C93.2095 174.612 93.2008 174.612 93.1921 174.612C93.1834 174.612 93.1746 174.612 93.1659 174.612C93.1659 174.612 93.1659 174.612 93.1572 174.612C93.1485 174.612 93.1398 174.612 93.1224 174.612C93.1224 174.612 93.1224 174.612 93.1137 174.612C93.0962 174.612 93.0875 174.612 93.0701 174.62C93.0701 174.62 93.0701 174.62 93.0614 174.62C93.0439 174.62 93.0352 174.62 93.0178 174.629C93.0178 174.629 93.0178 174.629 93.0091 174.629C93.0004 174.629 92.9917 174.629 92.9742 174.629C92.9742 174.629 92.9742 174.629 92.9655 174.629C92.9481 174.629 92.9307 174.629 92.9132 174.629C92.9132 174.629 92.9132 174.629 92.9045 174.629C92.8958 174.629 92.8871 174.629 92.8697 174.629H92.8522C92.8435 174.629 92.8348 174.629 92.8174 174.629C92.8087 174.629 92.8 174.629 92.7912 174.629C92.7825 174.629 92.7738 174.629 92.7564 174.629L92.617 174.909Z" fill="#009D47"/>
<path d="M93.5405 164.855C93.5405 164.855 93.5928 164.855 93.6103 164.855C93.619 164.855 93.6277 164.855 93.6451 164.855H93.6625C93.6712 164.855 93.68 164.855 93.6974 164.863H93.7148C93.7497 164.872 93.7845 164.881 93.8194 164.89C93.8629 164.898 93.8978 164.907 93.9414 164.916H93.9588C93.9588 164.916 93.9588 164.916 93.9675 164.916C93.9675 164.916 93.9762 164.916 93.9849 164.916C94.0024 164.916 94.0285 164.925 94.0459 164.933H94.0634C94.0634 164.933 94.0634 164.933 94.0721 164.933C94.0721 164.933 94.0808 164.933 94.0895 164.933C94.1418 164.951 94.2028 164.968 94.2551 164.977H94.2725C94.2725 164.977 94.2725 164.977 94.2812 164.977C94.2812 164.977 94.2899 164.977 94.2986 164.977C94.3248 164.986 94.3596 165.003 94.3858 165.012C94.4642 165.038 94.5426 165.056 94.6123 165.082C94.6472 165.091 94.682 165.1 94.7169 165.108C94.7169 165.108 94.7256 165.108 94.7343 165.108C94.7604 165.126 94.7866 165.135 94.8127 165.135H94.8302C94.865 165.143 94.8999 165.161 94.926 165.169C95.0306 165.204 95.1438 165.239 95.2484 165.274C95.414 165.327 95.5795 165.379 95.7364 165.432C95.8932 165.484 96.0588 165.545 96.2156 165.607C96.233 165.607 96.2505 165.615 96.2679 165.624C96.2679 165.624 96.2679 165.624 96.2766 165.624C96.3289 165.642 96.3812 165.668 96.4248 165.685C96.4945 165.712 96.5642 165.747 96.6339 165.781C96.6252 165.781 96.6164 165.781 96.6077 165.79C96.5903 165.79 96.5816 165.79 96.5642 165.799C96.5555 165.799 96.5467 165.799 96.5293 165.808C96.4945 165.808 96.4596 165.834 96.4248 165.843C96.416 165.843 96.3986 165.843 96.3899 165.851H96.3725C96.3115 165.886 96.2505 165.913 96.1895 165.948C96.1895 165.948 96.1808 165.948 96.1721 165.956C96.1721 165.956 96.1721 165.956 96.1633 165.956C96.1633 165.956 96.1459 165.956 96.1459 165.965C96.1459 165.965 96.1372 165.965 96.1285 165.974C96.1285 165.974 96.1285 165.974 96.1198 165.983C96.1023 165.991 96.0849 166 96.0675 166.018C96.0675 166.018 96.0588 166.018 96.0501 166.026C96.0501 166.026 96.0501 166.026 96.0413 166.035C96.0413 166.035 96.0326 166.035 96.0239 166.044C96.0239 166.044 96.0239 166.044 96.0152 166.044C96.0152 166.044 96.0065 166.044 95.9978 166.052C95.9978 166.052 95.9978 166.052 95.9891 166.052C95.9891 166.052 95.9804 166.053 95.9716 166.061C95.9716 166.061 95.9716 166.061 95.9629 166.061C95.9455 166.07 95.9281 166.087 95.9106 166.096C95.9106 166.096 95.9106 166.096 95.9019 166.105C95.8845 166.114 95.8758 166.122 95.8584 166.14C95.8584 166.14 95.8496 166.14 95.8409 166.149C95.8409 166.149 95.8409 166.149 95.8322 166.149C95.8322 166.149 95.8322 166.149 95.8235 166.157C95.8235 166.157 95.8148 166.157 95.8061 166.166C95.7974 166.166 95.7799 166.184 95.7712 166.192C95.7712 166.192 95.7712 166.192 95.7625 166.201C95.7538 166.201 95.7364 166.219 95.7277 166.227C95.7277 166.227 95.7277 166.227 95.7189 166.236C95.7102 166.245 95.6928 166.254 95.6841 166.262C95.6667 166.28 95.6405 166.297 95.6231 166.315C95.6231 166.315 95.6231 166.315 95.6231 166.324C95.5882 166.35 95.5621 166.385 95.5272 166.411C95.5272 166.411 95.5272 166.411 95.5185 166.411C95.5185 166.411 95.5185 166.411 95.5098 166.411C95.475 166.446 95.4488 166.472 95.414 166.507C95.414 166.507 95.414 166.507 95.414 166.516C95.414 166.516 95.414 166.516 95.414 166.525C95.414 166.525 95.414 166.525 95.414 166.533C95.3965 166.551 95.3791 166.577 95.3617 166.595C95.3617 166.595 95.3617 166.595 95.3617 166.603C95.3617 166.603 95.3617 166.603 95.3617 166.612C95.3443 166.63 95.3268 166.656 95.3181 166.673C95.3181 166.673 95.3181 166.673 95.3181 166.682C95.3181 166.682 95.3181 166.699 95.3094 166.699C95.3094 166.699 95.3094 166.708 95.3007 166.717C95.3007 166.717 95.3007 166.717 95.3007 166.726C95.3007 166.726 95.3007 166.743 95.292 166.743C95.2397 166.839 95.1874 166.927 95.1351 167.023C95.0567 167.189 94.9783 167.346 94.8912 167.513C94.8912 167.521 94.8824 167.539 94.8737 167.548C94.8737 167.548 94.8737 167.556 94.865 167.565C94.8476 167.609 94.8214 167.652 94.804 167.705C94.804 167.705 94.804 167.714 94.7953 167.722C94.7953 167.722 94.7953 167.722 94.7953 167.731C94.7779 167.766 94.7692 167.801 94.7517 167.836C94.7517 167.836 94.7517 167.845 94.743 167.854C94.7256 167.889 94.7169 167.915 94.6995 167.95C94.6995 167.95 94.6995 167.958 94.6907 167.967C94.6907 167.967 94.6907 167.967 94.6907 167.976C94.682 168.002 94.6733 168.037 94.6559 168.063C94.6559 168.063 94.6559 168.072 94.6559 168.081C94.6472 168.107 94.6297 168.133 94.621 168.16C94.621 168.16 94.621 168.168 94.6123 168.177C94.6123 168.177 94.6123 168.177 94.6123 168.186C94.6123 168.203 94.5949 168.229 94.5862 168.247C94.5862 168.247 94.5862 168.256 94.5862 168.264C94.5775 168.291 94.5688 168.317 94.5513 168.343C94.5513 168.343 94.5513 168.352 94.5513 168.361C94.5165 168.431 94.4903 168.509 94.4555 168.579C94.4555 168.579 94.4555 168.588 94.4555 168.597C94.4555 168.614 94.438 168.632 94.4293 168.649C94.4293 168.649 94.4293 168.658 94.4206 168.667C94.4206 168.667 94.4206 168.667 94.4206 168.675C94.4032 168.719 94.3858 168.763 94.3683 168.798C94.3509 168.841 94.3335 168.885 94.3161 168.929C94.3161 168.929 94.3161 168.929 94.3161 168.938C94.3161 168.938 94.3161 168.938 94.3161 168.946C94.3161 168.964 94.3161 168.973 94.3073 168.99C94.3073 168.99 94.3073 168.99 94.3073 168.999C94.3073 168.999 94.3073 168.999 94.3073 169.008C94.3073 169.025 94.3073 169.034 94.2986 169.051C94.2986 169.051 94.2986 169.06 94.2986 169.069C94.2638 169.147 94.2289 169.217 94.2028 169.296C94.2028 169.296 94.2028 169.296 94.2028 169.305C94.2028 169.305 94.2028 169.305 94.2028 169.314C94.1941 169.349 94.1853 169.375 94.1679 169.41C94.1679 169.41 94.1679 169.41 94.1679 169.418C94.1679 169.418 94.1679 169.418 94.1679 169.427C94.1679 169.445 94.1679 169.453 94.1592 169.471C94.1592 169.471 94.1592 169.471 94.1505 169.48C94.1505 169.48 94.1505 169.48 94.1418 169.48C94.1418 169.48 94.1331 169.471 94.1244 169.462C94.1069 169.445 94.0982 169.427 94.0808 169.418C94.0808 169.418 94.0808 169.41 94.0808 169.401C94.0808 169.401 94.0808 169.401 94.0808 169.392C94.0808 169.392 94.0808 169.392 94.0808 169.384C94.0808 169.384 94.0808 169.384 94.0808 169.375C94.0808 169.375 94.0808 169.375 94.0808 169.366C94.0808 169.366 94.0808 169.366 94.0808 169.357C94.0111 169.287 93.9327 169.209 93.8629 169.139C93.8629 169.139 93.8629 169.13 93.8629 169.121C93.8629 169.121 93.8542 169.112 93.8455 169.104C93.8455 169.104 93.8455 169.104 93.8455 169.095C93.8107 169.06 93.7758 169.025 93.7322 168.99C93.7322 168.99 93.7322 168.981 93.7322 168.973C93.7061 168.946 93.6887 168.92 93.6625 168.894C93.6625 168.894 93.6625 168.894 93.6538 168.885C93.6538 168.885 93.6538 168.876 93.6451 168.868C93.6451 168.868 93.6451 168.868 93.6451 168.859C93.6451 168.859 93.6451 168.859 93.6451 168.85C93.6277 168.824 93.6015 168.806 93.5841 168.789C93.558 168.763 93.5405 168.737 93.5144 168.71C93.497 168.693 93.4795 168.675 93.4621 168.658C93.4621 168.658 93.4621 168.658 93.4621 168.649C93.4447 168.632 93.4273 168.614 93.4098 168.597C93.4098 168.597 93.4098 168.597 93.4098 168.588C93.4098 168.588 93.4098 168.588 93.4098 168.579C93.4011 168.562 93.3837 168.553 93.375 168.535C93.375 168.535 93.375 168.535 93.375 168.527C93.3663 168.509 93.3488 168.501 93.3401 168.483C93.3401 168.483 93.3401 168.483 93.3401 168.474C93.3314 168.457 93.314 168.448 93.3053 168.431C93.3053 168.431 93.2704 168.387 93.253 168.369C93.253 168.369 93.253 168.369 93.253 168.361C93.2443 168.343 93.2269 168.334 93.2181 168.317C93.2181 168.317 93.2181 168.317 93.2181 168.308C93.2094 168.299 93.2007 168.282 93.192 168.273C93.192 168.273 93.192 168.273 93.192 168.264C93.1833 168.256 93.1746 168.238 93.1659 168.229C93.1659 168.229 93.1659 168.229 93.1659 168.221C93.1571 168.212 93.1484 168.194 93.1397 168.186V168.177C93.1397 168.177 93.131 168.16 93.1223 168.151C93.0874 168.098 93.0439 168.046 93.009 168.002C93.009 168.002 93.009 167.993 93.0003 167.985C93.0003 167.985 93.0003 167.985 93.0003 167.976C92.9916 167.958 92.9829 167.95 92.9654 167.932C92.9654 167.932 92.9654 167.923 92.9567 167.915C92.9567 167.915 92.9567 167.915 92.9567 167.906C92.9567 167.906 92.9567 167.897 92.948 167.888C92.948 167.888 92.948 167.88 92.948 167.871C92.9306 167.854 92.9219 167.827 92.9045 167.81C92.9045 167.81 92.9045 167.801 92.8957 167.792C92.8957 167.792 92.8957 167.792 92.8957 167.784C92.8522 167.696 92.8086 167.617 92.765 167.53C92.7389 167.469 92.7389 167.399 92.7389 167.329C92.7389 167.268 92.7563 167.198 92.7737 167.137C92.7737 167.137 92.7737 167.119 92.7737 167.11C92.7912 167.075 92.7999 167.032 92.8173 166.997C92.8173 166.979 92.826 166.971 92.8347 166.953C92.8347 166.944 92.8435 166.936 92.8522 166.927C92.887 166.831 92.9306 166.752 92.9742 166.665C93.0003 166.612 93.0264 166.568 93.0526 166.516C93.0526 166.516 93.0526 166.516 93.0526 166.507C93.0787 166.463 93.1049 166.42 93.131 166.367C93.131 166.367 93.131 166.367 93.131 166.359C93.131 166.359 93.1571 166.315 93.1746 166.289C93.1746 166.289 93.1746 166.289 93.1746 166.28C93.1746 166.28 93.1746 166.271 93.1746 166.262C93.1746 166.262 93.1746 166.262 93.1746 166.254C93.2094 166.192 93.253 166.14 93.2878 166.079C93.2878 166.079 93.2878 166.079 93.2878 166.07C93.2878 166.07 93.2878 166.061 93.2966 166.052C93.2966 166.052 93.2966 166.053 93.2966 166.044C93.314 166.018 93.3401 165.991 93.3576 165.956C93.3576 165.956 93.3576 165.956 93.3576 165.948C93.3576 165.948 93.3576 165.948 93.3576 165.939C93.3837 165.904 93.4011 165.878 93.4273 165.843C93.4273 165.843 93.4273 165.843 93.4273 165.834C93.4273 165.834 93.436 165.816 93.4447 165.808C93.4447 165.808 93.4447 165.808 93.4447 165.799C93.4447 165.799 93.4534 165.781 93.4621 165.773C93.4621 165.773 93.4621 165.773 93.4621 165.764C93.4621 165.764 93.4708 165.747 93.4795 165.738C93.4795 165.738 93.4795 165.738 93.4795 165.729C93.4795 165.729 93.5231 165.677 93.5405 165.65C93.5405 165.65 93.5405 165.65 93.5405 165.642C93.558 165.615 93.5841 165.589 93.6015 165.563C93.6015 165.563 93.6015 165.563 93.6015 165.554C93.6015 165.554 93.619 165.528 93.6277 165.519C93.6277 165.519 93.6277 165.519 93.6277 165.51C93.6277 165.51 93.6277 165.51 93.6277 165.502C93.6364 165.484 93.6538 165.475 93.6625 165.458C93.6625 165.458 93.68 165.432 93.6887 165.423C93.6887 165.423 93.6887 165.423 93.6887 165.414C93.6887 165.414 93.6887 165.414 93.6887 165.406C93.7061 165.379 93.7235 165.362 93.7497 165.336C93.7671 165.309 93.7845 165.292 93.8107 165.266C93.8368 165.239 93.8542 165.213 93.8804 165.187C93.8804 165.187 93.8804 165.187 93.8804 165.178C93.8804 165.178 93.8804 165.169 93.8804 165.161C93.9065 165.135 93.9239 165.117 93.9501 165.091C93.9849 165.056 94.0198 165.03 94.0546 165.003L93.5405 164.855Z" fill="#009D47"/>
<path d="M98.8995 167.897C98.8995 167.897 98.8559 167.958 98.8298 167.993C98.8298 167.993 98.8298 167.993 98.8298 168.002C98.8298 168.002 98.7862 168.072 98.7601 168.098C98.7601 168.098 98.7601 168.098 98.7601 168.107C98.7165 168.168 98.6817 168.221 98.6381 168.282C98.6381 168.282 98.6381 168.282 98.6381 168.291C98.6119 168.326 98.5945 168.352 98.5684 168.387C98.5684 168.387 98.5684 168.387 98.5684 168.396C98.5422 168.431 98.5248 168.457 98.4987 168.492C98.4987 168.492 98.4987 168.492 98.4987 168.5C98.4987 168.5 98.4551 168.57 98.429 168.597C98.429 168.597 98.429 168.597 98.429 168.605C98.4028 168.64 98.3854 168.667 98.3593 168.702C98.3593 168.702 98.3593 168.702 98.3593 168.71C98.3157 168.772 98.2808 168.824 98.2373 168.885C98.2373 168.885 98.2373 168.885 98.2373 168.894C98.2373 168.894 98.2373 168.894 98.2373 168.903C98.2111 168.938 98.1937 168.964 98.1676 168.999C98.1676 168.999 98.1676 168.999 98.1676 169.008C98.1414 169.043 98.124 169.069 98.0978 169.104C98.0978 169.104 98.0978 169.104 98.0978 169.112C98.0978 169.112 98.0543 169.182 98.0281 169.209C98.0281 169.209 98.0281 169.209 98.0281 169.217C98.002 169.252 97.9846 169.279 97.9584 169.314C97.9584 169.314 97.9584 169.314 97.9584 169.322C97.9323 169.357 97.9149 169.384 97.8887 169.418C97.8887 169.418 97.8887 169.418 97.8887 169.427C97.8887 169.427 97.8539 169.488 97.819 169.471H97.8016C97.6709 169.418 97.5315 169.375 97.4008 169.322H97.3833C97.2526 169.27 97.1132 169.226 96.9825 169.174H96.9651C96.8344 169.121 96.695 169.078 96.5643 169.025H96.5468C96.4161 168.973 96.2767 168.929 96.146 168.876H96.1286C96.0676 168.859 96.0066 168.833 95.9456 168.815C95.9369 168.815 95.9194 168.815 95.9282 168.789C95.9282 168.789 95.9456 168.789 95.9543 168.789C96.0066 168.772 96.0676 168.754 96.1199 168.737C96.1983 168.702 96.2767 168.649 96.3551 168.614C96.3726 168.605 96.3813 168.588 96.3987 168.579C96.3987 168.579 96.3987 168.579 96.4074 168.579C96.4074 168.579 96.4248 168.57 96.4335 168.562C96.4335 168.562 96.4335 168.562 96.4423 168.562C96.4684 168.535 96.5033 168.518 96.5294 168.492C96.5817 168.439 96.5904 168.369 96.5817 168.308C96.5817 168.264 96.5643 168.212 96.5555 168.168C96.5555 168.168 96.5555 168.151 96.5555 168.142C96.5555 168.142 96.5555 168.142 96.5555 168.133C96.5381 168.09 96.5294 168.046 96.512 168.011C96.4771 167.941 96.4423 167.871 96.3987 167.792C96.3987 167.792 96.3987 167.784 96.39 167.775C96.39 167.775 96.39 167.766 96.39 167.757C96.3638 167.714 96.3377 167.679 96.3203 167.635C96.3203 167.635 96.3203 167.626 96.3116 167.617C96.3116 167.617 96.3116 167.609 96.3116 167.6C96.2941 167.574 96.2767 167.548 96.2593 167.521C96.2593 167.521 96.2593 167.513 96.2506 167.504C96.2506 167.504 96.2506 167.504 96.2506 167.495C96.2244 167.46 96.1983 167.416 96.1721 167.381C96.1721 167.381 96.1721 167.381 96.1721 167.373C96.1721 167.373 96.1721 167.364 96.1634 167.355C96.1634 167.355 96.1634 167.355 96.1634 167.346C96.1547 167.329 96.146 167.32 96.1373 167.303C96.1373 167.303 96.1373 167.294 96.1286 167.285V167.277C96.1286 167.277 96.1199 167.259 96.1111 167.25C96.1111 167.25 96.1111 167.25 96.1111 167.242C96.1111 167.242 96.1024 167.224 96.0937 167.215C96.0937 167.215 96.0937 167.215 96.0937 167.207C96.0937 167.207 96.085 167.189 96.0763 167.18V167.172C96.0763 167.172 96.0676 167.154 96.0589 167.145C96.0589 167.145 96.0589 167.145 96.0589 167.137C96.0589 167.137 96.0589 167.137 96.0502 167.128C96.0502 167.128 96.0502 167.119 96.0414 167.11C96.0327 167.102 96.024 167.084 96.0153 167.075C96.0153 167.075 96.0153 167.075 96.0153 167.067C95.9979 167.04 96.0153 167.032 96.024 167.014C96.0327 166.997 96.0501 166.988 96.0589 166.97C96.0589 166.97 96.0589 166.971 96.0589 166.962C96.0589 166.962 96.0589 166.962 96.0589 166.953C96.0763 166.936 96.0937 166.909 96.1199 166.892C96.1199 166.892 96.1199 166.892 96.1199 166.883V166.866C96.1634 166.822 96.207 166.778 96.2506 166.734C96.2506 166.734 96.2506 166.734 96.2506 166.726C96.2767 166.699 96.3028 166.673 96.329 166.656C96.3638 166.621 96.3987 166.586 96.4335 166.551C96.4335 166.551 96.4423 166.551 96.451 166.551C96.4684 166.533 96.4858 166.525 96.4945 166.507C96.512 166.49 96.5294 166.472 96.5555 166.455C96.5555 166.455 96.5555 166.455 96.5643 166.455C96.5991 166.428 96.634 166.402 96.6688 166.376C96.6688 166.376 96.6688 166.376 96.6775 166.376C96.7037 166.359 96.7298 166.341 96.756 166.324C96.756 166.324 96.756 166.324 96.7647 166.324C96.7647 166.324 96.7821 166.324 96.7908 166.315C96.8518 166.271 96.9215 166.245 96.9912 166.219H97.0086C97.0261 166.219 97.0522 166.21 97.0696 166.201H97.0871C97.1481 166.201 97.2091 166.184 97.2701 166.175C97.3049 166.175 97.3398 166.175 97.3746 166.175C97.3746 166.175 97.4443 166.175 97.4792 166.184C97.5315 166.184 97.575 166.201 97.6186 166.219C97.6796 166.236 97.7406 166.254 97.8016 166.28C97.9061 166.324 98.002 166.376 98.1066 166.428C98.1066 166.428 98.1066 166.428 98.1153 166.428C98.1153 166.428 98.124 166.428 98.1327 166.437C98.1414 166.437 98.1588 166.455 98.1763 166.463C98.2373 166.49 98.2895 166.533 98.3331 166.586C98.3331 166.586 98.3331 166.586 98.3331 166.595C98.3418 166.612 98.3505 166.621 98.3593 166.638C98.3593 166.638 98.3593 166.647 98.3593 166.656C98.3767 166.691 98.3941 166.726 98.4115 166.761C98.4377 166.857 98.4725 166.953 98.4987 167.049C98.5161 167.128 98.5335 167.207 98.551 167.285C98.5684 167.364 98.5858 167.434 98.5945 167.513C98.612 167.644 98.6207 167.775 98.6381 167.915C98.6381 167.932 98.6555 167.932 98.6642 167.915C98.6904 167.915 98.7165 167.906 98.7339 167.897C98.7339 167.897 98.7427 167.897 98.7514 167.897C98.8037 167.888 98.8559 167.871 98.9082 167.862C98.9082 167.862 98.9169 167.862 98.9256 167.862C98.9256 167.862 98.9431 167.862 98.9518 167.862H98.9692C99.0215 167.854 99.0738 167.836 99.1261 167.827C99.1261 167.827 99.1348 167.827 99.1435 167.827C99.1435 167.827 99.1609 167.827 99.1696 167.827H99.187C99.2219 167.827 99.2568 167.81 99.2916 167.801C99.2916 167.801 99.2916 167.801 99.3003 167.801C99.3003 167.801 99.3003 167.801 99.3003 167.81C99.2916 167.827 99.2829 167.836 99.2742 167.854C99.2742 167.854 99.2742 167.854 99.2742 167.862C99.248 167.897 99.2306 167.923 99.2045 167.958C99.2045 167.958 99.2045 167.958 99.2045 167.967C99.2045 167.967 99.1609 168.037 99.1348 168.063C99.1348 168.063 99.1348 168.063 99.1348 168.072L98.8995 167.897Z" fill="#019D47"/>
<path d="M96.6513 175.259C96.6513 175.259 96.6339 175.259 96.6252 175.259C96.599 175.259 96.5729 175.241 96.5467 175.232H96.5293C96.5119 175.232 96.4857 175.215 96.4683 175.206C96.4683 175.206 96.4596 175.206 96.4509 175.206C96.4335 175.206 96.416 175.189 96.3986 175.18C96.3986 175.18 96.3899 175.18 96.3812 175.171C96.3812 175.171 96.3725 175.171 96.3638 175.163C96.3638 175.163 96.355 175.163 96.3463 175.154C96.3463 175.154 96.3376 175.154 96.3289 175.145C96.3289 175.145 96.3202 175.145 96.3115 175.136C96.2941 175.128 96.2679 175.11 96.2505 175.101C96.2505 175.101 96.2505 175.101 96.2418 175.101C96.2418 175.101 96.2331 175.101 96.2243 175.093C96.2243 175.093 96.2069 175.093 96.2069 175.084C96.2069 175.084 96.2069 175.084 96.1982 175.084C96.1982 175.084 96.1895 175.084 96.1808 175.075C96.1633 175.066 96.1459 175.058 96.1285 175.04C96.1285 175.04 96.1285 175.04 96.1198 175.04C96.1198 175.04 96.1111 175.031 96.1024 175.031C96.1024 175.031 96.1024 175.031 96.0936 175.031C96.0936 175.031 96.0849 175.031 96.0762 175.023C96.0762 175.023 96.0762 175.023 96.0675 175.023C96.0675 175.023 96.0588 175.023 96.0501 175.014C96.0501 175.014 96.0501 175.014 96.0414 175.014C96.0414 175.014 96.0326 175.005 96.0239 174.996C96.0065 174.988 95.9978 174.979 95.9804 174.961C95.9804 174.961 95.9804 174.961 95.9716 174.961C95.9716 174.961 95.9629 174.961 95.9542 174.953C95.9368 174.944 95.9281 174.935 95.9107 174.918C95.9107 174.918 95.9107 174.918 95.9019 174.918C95.9019 174.918 95.8845 174.909 95.8758 174.9C95.8758 174.9 95.8758 174.9 95.8671 174.9C95.8409 174.883 95.8148 174.865 95.7887 174.839C95.7887 174.839 95.7887 174.839 95.7799 174.839C95.7712 174.83 95.7538 174.822 95.7451 174.813C95.7451 174.813 95.7451 174.813 95.7364 174.813C95.719 174.804 95.7102 174.787 95.6928 174.778C95.6754 174.769 95.6667 174.752 95.6492 174.743C95.6492 174.743 95.6492 174.743 95.6405 174.743C95.6231 174.725 95.6057 174.708 95.5882 174.69C95.5708 174.725 95.5534 174.752 95.536 174.778C95.536 174.778 95.536 174.778 95.536 174.787C95.536 174.787 95.536 174.804 95.5273 174.804C95.5098 174.839 95.4837 174.874 95.4663 174.909C95.4663 174.909 95.4663 174.909 95.4663 174.918C95.4663 174.918 95.4663 174.935 95.4575 174.935C95.4401 174.97 95.414 175.005 95.3966 175.04C95.3966 175.04 95.3966 175.04 95.3966 175.049C95.3966 175.049 95.3966 175.066 95.3878 175.066C95.3704 175.101 95.3443 175.136 95.3268 175.171C95.3268 175.171 95.3268 175.171 95.3268 175.18C95.3268 175.18 95.3268 175.197 95.3181 175.197C95.3094 175.215 95.292 175.232 95.2746 175.259C95.2658 175.198 95.2571 175.145 95.2484 175.101C95.231 174.996 95.2136 174.9 95.1961 174.795C95.1874 174.717 95.1787 174.647 95.1613 174.568C95.1526 174.489 95.1351 174.419 95.1177 174.341C95.109 174.262 95.1003 174.192 95.0829 174.113C95.0741 174.035 95.0567 173.965 95.0393 173.886C95.0393 173.834 95.0219 173.781 95.0219 173.729C95.0132 173.65 94.9957 173.58 94.987 173.501C94.9783 173.449 94.9696 173.388 94.9609 173.335C94.9434 173.239 94.926 173.143 94.9086 173.038C94.8999 172.977 94.8912 172.907 94.8824 172.846C94.8824 172.846 94.8824 172.846 94.8912 172.837C94.9434 172.811 94.987 172.793 95.0393 172.767H95.0567C95.1003 172.75 95.1439 172.732 95.1787 172.706C95.2136 172.688 95.2484 172.671 95.2833 172.653C95.2833 172.653 95.292 172.653 95.3007 172.653C95.3007 172.653 95.3094 172.653 95.3181 172.653H95.3356C95.3966 172.627 95.4663 172.592 95.5273 172.566C95.6928 172.487 95.8584 172.417 96.0152 172.339C96.1111 172.295 96.2069 172.251 96.3028 172.207C96.3986 172.164 96.4945 172.12 96.5903 172.076C96.6339 172.059 96.6774 172.041 96.7123 172.024C96.7123 172.024 96.721 172.024 96.7297 172.024C96.721 172.041 96.7123 172.059 96.7036 172.076C96.7036 172.076 96.7036 172.085 96.7036 172.094C96.7036 172.094 96.7036 172.103 96.7036 172.111C96.7036 172.111 96.7036 172.111 96.7036 172.12C96.7036 172.12 96.7036 172.12 96.7036 172.129C96.7036 172.129 96.7036 172.129 96.7036 172.138V172.155V172.172C96.7036 172.172 96.7036 172.172 96.7036 172.181C96.6949 172.216 96.6862 172.242 96.6774 172.277C96.6774 172.277 96.6774 172.277 96.6774 172.286C96.6774 172.295 96.6774 172.312 96.6774 172.321C96.6687 172.321 96.6513 172.33 96.66 172.347C96.66 172.391 96.6426 172.435 96.6339 172.47C96.6339 172.478 96.6339 172.487 96.6252 172.505C96.6252 172.548 96.6252 172.601 96.6165 172.645C96.6165 172.732 96.6513 172.784 96.721 172.828C96.721 172.828 96.721 172.828 96.7297 172.828C96.7733 172.872 96.8343 172.898 96.8866 172.924C96.965 172.959 97.0347 172.994 97.1131 173.012C97.2613 173.056 97.4181 173.099 97.5662 173.125C97.6534 173.143 97.7318 173.16 97.8189 173.178C97.8712 173.187 97.9322 173.195 97.9845 173.195C98.0455 173.195 98.1152 173.213 98.1762 173.222C98.1762 173.222 98.1762 173.239 98.1762 173.257C98.1762 173.3 98.1849 173.344 98.1849 173.396C98.2023 173.641 98.2023 173.886 98.1849 174.14C98.1849 174.201 98.1675 174.253 98.1588 174.314C98.1588 174.358 98.15 174.402 98.1413 174.437C98.0629 174.804 97.8364 175.058 97.5052 175.215C97.3745 175.276 97.2351 175.32 97.0957 175.364C97.0521 175.381 96.9999 175.39 96.9563 175.407C96.9214 175.407 96.8779 175.407 96.843 175.407L96.6513 175.259Z" fill="#009D47"/>
<path d="M184.371 93.8805C189.015 93.8805 192.78 90.1032 192.78 85.4436C192.78 80.7841 189.015 77.0068 184.371 77.0068C179.727 77.0068 175.963 80.7841 175.963 85.4436C175.963 90.1032 179.727 93.8805 184.371 93.8805Z" stroke="#009D47" stroke-width="1.47" stroke-miterlimit="10"/>
<path d="M183.343 77.0768C182.254 78.6417 182.385 80.4515 182.385 80.4515C183.57 81.7717 184.798 81.2908 184.798 81.2908C184.668 82.8383 185.103 84.2896 185.417 84.5082C185.731 84.7267 187.351 86.2742 187.351 86.2742C186.689 87.3321 184.868 87.2884 184.868 87.2884C183.709 87.5507 184.328 88.5036 184.328 88.5036C185.025 88.4337 185.818 89.002 185.818 89.002C186.654 89.579 187.534 88.696 187.534 88.696C189.164 88.9583 189.512 88.5036 189.512 88.5036C189.643 87.0174 190.959 86.7114 190.959 86.7114C191.926 86.4491 192.789 85.4437 192.789 85.4437" stroke="#009D47" stroke-width="1.47" stroke-miterlimit="10"/>
<path d="M176.146 83.7126C177.4 83.7738 178.089 84.5431 178.089 84.5431C177.941 86.178 178.289 86.2742 178.289 86.2742C178.855 86.178 179.326 85.8283 179.326 85.8283C179.919 85.9245 180.607 86.9649 180.607 86.9649C180.729 87.708 180.389 88.4949 180.389 88.4949C181.077 89.6664 181.13 90.0336 181.13 90.0336C181.104 90.9779 180.982 91.2926 180.982 91.2926C180.171 92.1844 179.797 92.5079 179.797 92.5079" stroke="#009D47" stroke-width="1.47" stroke-miterlimit="10"/>
</g>
<defs>
<linearGradient id="paint0_linear_910_526" x1="96.6862" y1="194.021" x2="96.6862" y2="0" gradientUnits="userSpaceOnUse">
<stop stop-color="#E8458B"/>
<stop offset="0.35" stop-color="#903775"/>
<stop offset="1" stop-color="#363553"/>
</linearGradient>
<clipPath id="clip0_910_526">
<rect width="211" height="195" fill="white"/>
</clipPath>
</defs>
</svg>
